<mxfile host="app.diagrams.net" agent="Mozilla/5.0 (Windows NT 10.0; Win64; x64) AppleWebKit/537.36 (KHTML, like Gecko) Chrome/130.0.0.0 Safari/537.36 Edg/130.0.0.0" version="24.8.6">
  <diagram name="페이지-1" id="Y8B7rMoeN9hM4UEWo97L">
    <mxGraphModel dx="906" dy="493" grid="1" gridSize="10" guides="1" tooltips="1" connect="1" arrows="1" fold="1" page="1" pageScale="1" pageWidth="3300" pageHeight="4681" math="0" shadow="0">
      <root>
        <mxCell id="0" />
        <mxCell id="1" parent="0" />
        <mxCell id="pXaMLWNUyVMHvU2EfD6I-1" value="API Server" style="rounded=0;whiteSpace=wrap;sketch=1;curveFitting=1;jiggle=2;fontFamily=Permanent Marker;html=1;sketchStyle=comic;fontStyle=5;strokeWidth=2;fontSize=15;" vertex="1" parent="1">
          <mxGeometry x="90" y="270" width="120" height="60" as="geometry" />
        </mxCell>
        <mxCell id="pXaMLWNUyVMHvU2EfD6I-4" value="GPU" style="rounded=1;whiteSpace=wrap;html=1;sketch=1;jiggle=2;curveFitting=1;sketchStyle=comic;strokeColor=#666666;strokeWidth=2;align=center;verticalAlign=middle;fontFamily=Permanent Marker;fontSize=12;fontStyle=1;fillColor=#f5f5f5;fontColor=#333333;" vertex="1" parent="1">
          <mxGeometry x="300" y="470" width="120" height="60" as="geometry" />
        </mxCell>
        <mxCell id="8BjTEOA2ny8shlbgz9hC-1" value="&amp;nbsp; &amp;nbsp; &amp;nbsp;&lt;font style=&quot;font-size: 18px;&quot;&gt;&lt;u&gt;Scheduler&lt;/u&gt;&lt;/font&gt;" style="rounded=1;whiteSpace=wrap;html=1;sketch=1;jiggle=2;curveFitting=1;sketchStyle=comic;strokeColor=default;strokeWidth=2;align=left;verticalAlign=top;fontFamily=Permanent Marker;fontSize=12;fontColor=default;fontStyle=1;fillColor=none;" vertex="1" parent="1">
          <mxGeometry x="260" y="90" width="640" height="280" as="geometry" />
        </mxCell>
        <mxCell id="8BjTEOA2ny8shlbgz9hC-12" value="" style="group" vertex="1" connectable="0" parent="1">
          <mxGeometry x="280" y="160" width="60" height="60" as="geometry" />
        </mxCell>
        <mxCell id="8BjTEOA2ny8shlbgz9hC-4" value="&lt;span style=&quot;font-weight: normal;&quot;&gt;Prompt Q&lt;/span&gt;" style="text;html=1;align=center;verticalAlign=middle;whiteSpace=wrap;rounded=0;fontFamily=Permanent Marker;fontSize=12;fontColor=default;fontStyle=1;" vertex="1" parent="8BjTEOA2ny8shlbgz9hC-12">
          <mxGeometry y="30" width="60" height="30" as="geometry" />
        </mxCell>
        <mxCell id="8BjTEOA2ny8shlbgz9hC-11" value="" style="group" vertex="1" connectable="0" parent="8BjTEOA2ny8shlbgz9hC-12">
          <mxGeometry width="60" height="30" as="geometry" />
        </mxCell>
        <mxCell id="8BjTEOA2ny8shlbgz9hC-2" value="" style="rounded=0;whiteSpace=wrap;html=1;sketch=1;jiggle=2;curveFitting=1;sketchStyle=comic;strokeColor=default;strokeWidth=2;align=center;verticalAlign=middle;fontFamily=Permanent Marker;fontSize=12;fontColor=default;fontStyle=1;fillColor=default;" vertex="1" parent="8BjTEOA2ny8shlbgz9hC-11">
          <mxGeometry width="10" height="30" as="geometry" />
        </mxCell>
        <mxCell id="8BjTEOA2ny8shlbgz9hC-6" value="" style="rounded=0;whiteSpace=wrap;html=1;sketch=1;jiggle=2;curveFitting=1;sketchStyle=comic;strokeColor=default;strokeWidth=2;align=center;verticalAlign=middle;fontFamily=Permanent Marker;fontSize=12;fontColor=default;fontStyle=1;fillColor=default;" vertex="1" parent="8BjTEOA2ny8shlbgz9hC-11">
          <mxGeometry x="10" width="10" height="30" as="geometry" />
        </mxCell>
        <mxCell id="8BjTEOA2ny8shlbgz9hC-7" value="" style="rounded=0;whiteSpace=wrap;html=1;sketch=1;jiggle=2;curveFitting=1;sketchStyle=comic;strokeColor=default;strokeWidth=2;align=center;verticalAlign=middle;fontFamily=Permanent Marker;fontSize=12;fontColor=default;fontStyle=1;fillColor=default;" vertex="1" parent="8BjTEOA2ny8shlbgz9hC-11">
          <mxGeometry x="20" width="10" height="30" as="geometry" />
        </mxCell>
        <mxCell id="8BjTEOA2ny8shlbgz9hC-8" value="" style="rounded=0;whiteSpace=wrap;html=1;sketch=1;jiggle=2;curveFitting=1;sketchStyle=comic;strokeColor=default;strokeWidth=2;align=center;verticalAlign=middle;fontFamily=Permanent Marker;fontSize=12;fontColor=default;fontStyle=1;fillColor=default;" vertex="1" parent="8BjTEOA2ny8shlbgz9hC-11">
          <mxGeometry x="30" width="10" height="30" as="geometry" />
        </mxCell>
        <mxCell id="8BjTEOA2ny8shlbgz9hC-9" value="" style="rounded=0;whiteSpace=wrap;html=1;sketch=1;jiggle=2;curveFitting=1;sketchStyle=comic;strokeColor=default;strokeWidth=2;align=center;verticalAlign=middle;fontFamily=Permanent Marker;fontSize=12;fontColor=default;fontStyle=1;fillColor=default;" vertex="1" parent="8BjTEOA2ny8shlbgz9hC-11">
          <mxGeometry x="40" width="10" height="30" as="geometry" />
        </mxCell>
        <mxCell id="8BjTEOA2ny8shlbgz9hC-10" value="" style="rounded=0;whiteSpace=wrap;html=1;sketch=1;jiggle=2;curveFitting=1;sketchStyle=comic;strokeColor=default;strokeWidth=2;align=center;verticalAlign=middle;fontFamily=Permanent Marker;fontSize=12;fontColor=default;fontStyle=1;fillColor=default;" vertex="1" parent="8BjTEOA2ny8shlbgz9hC-11">
          <mxGeometry x="50" width="10" height="30" as="geometry" />
        </mxCell>
        <mxCell id="8BjTEOA2ny8shlbgz9hC-23" value="" style="group" vertex="1" connectable="0" parent="1">
          <mxGeometry x="280" y="250" width="90" height="60" as="geometry" />
        </mxCell>
        <mxCell id="8BjTEOA2ny8shlbgz9hC-24" value="&lt;span style=&quot;font-weight: normal;&quot;&gt;Completion Q&lt;/span&gt;" style="text;html=1;align=center;verticalAlign=middle;whiteSpace=wrap;rounded=0;fontFamily=Permanent Marker;fontSize=12;fontColor=default;fontStyle=1;" vertex="1" parent="8BjTEOA2ny8shlbgz9hC-23">
          <mxGeometry x="-15" y="30" width="90" height="30" as="geometry" />
        </mxCell>
        <mxCell id="8BjTEOA2ny8shlbgz9hC-25" value="" style="group" vertex="1" connectable="0" parent="8BjTEOA2ny8shlbgz9hC-23">
          <mxGeometry width="60" height="30" as="geometry" />
        </mxCell>
        <mxCell id="8BjTEOA2ny8shlbgz9hC-26" value="" style="rounded=0;whiteSpace=wrap;html=1;sketch=1;jiggle=2;curveFitting=1;sketchStyle=comic;strokeColor=default;strokeWidth=2;align=center;verticalAlign=middle;fontFamily=Permanent Marker;fontSize=12;fontColor=default;fontStyle=1;fillColor=default;" vertex="1" parent="8BjTEOA2ny8shlbgz9hC-25">
          <mxGeometry width="10" height="30" as="geometry" />
        </mxCell>
        <mxCell id="8BjTEOA2ny8shlbgz9hC-27" value="" style="rounded=0;whiteSpace=wrap;html=1;sketch=1;jiggle=2;curveFitting=1;sketchStyle=comic;strokeColor=default;strokeWidth=2;align=center;verticalAlign=middle;fontFamily=Permanent Marker;fontSize=12;fontColor=default;fontStyle=1;fillColor=default;" vertex="1" parent="8BjTEOA2ny8shlbgz9hC-25">
          <mxGeometry x="10" width="10" height="30" as="geometry" />
        </mxCell>
        <mxCell id="8BjTEOA2ny8shlbgz9hC-28" value="" style="rounded=0;whiteSpace=wrap;html=1;sketch=1;jiggle=2;curveFitting=1;sketchStyle=comic;strokeColor=default;strokeWidth=2;align=center;verticalAlign=middle;fontFamily=Permanent Marker;fontSize=12;fontColor=default;fontStyle=1;fillColor=default;" vertex="1" parent="8BjTEOA2ny8shlbgz9hC-25">
          <mxGeometry x="20" width="10" height="30" as="geometry" />
        </mxCell>
        <mxCell id="8BjTEOA2ny8shlbgz9hC-29" value="" style="rounded=0;whiteSpace=wrap;html=1;sketch=1;jiggle=2;curveFitting=1;sketchStyle=comic;strokeColor=default;strokeWidth=2;align=center;verticalAlign=middle;fontFamily=Permanent Marker;fontSize=12;fontColor=default;fontStyle=1;fillColor=default;" vertex="1" parent="8BjTEOA2ny8shlbgz9hC-25">
          <mxGeometry x="30" width="10" height="30" as="geometry" />
        </mxCell>
        <mxCell id="8BjTEOA2ny8shlbgz9hC-30" value="" style="rounded=0;whiteSpace=wrap;html=1;sketch=1;jiggle=2;curveFitting=1;sketchStyle=comic;strokeColor=default;strokeWidth=2;align=center;verticalAlign=middle;fontFamily=Permanent Marker;fontSize=12;fontColor=default;fontStyle=1;fillColor=default;" vertex="1" parent="8BjTEOA2ny8shlbgz9hC-25">
          <mxGeometry x="40" width="10" height="30" as="geometry" />
        </mxCell>
        <mxCell id="8BjTEOA2ny8shlbgz9hC-31" value="" style="rounded=0;whiteSpace=wrap;html=1;sketch=1;jiggle=2;curveFitting=1;sketchStyle=comic;strokeColor=default;strokeWidth=2;align=center;verticalAlign=middle;fontFamily=Permanent Marker;fontSize=12;fontColor=default;fontStyle=1;fillColor=default;" vertex="1" parent="8BjTEOA2ny8shlbgz9hC-25">
          <mxGeometry x="50" width="10" height="30" as="geometry" />
        </mxCell>
        <mxCell id="8BjTEOA2ny8shlbgz9hC-32" value="&lt;span style=&quot;font-size: 15px;&quot;&gt;Request Pool&lt;/span&gt;" style="rounded=0;whiteSpace=wrap;html=1;sketch=1;jiggle=2;curveFitting=1;sketchStyle=comic;strokeColor=default;strokeWidth=2;align=center;verticalAlign=top;fontFamily=Permanent Marker;fontSize=15;fontColor=default;fontStyle=0;fillColor=default;" vertex="1" parent="1">
          <mxGeometry x="420" y="110" width="420" height="120" as="geometry" />
        </mxCell>
        <mxCell id="8BjTEOA2ny8shlbgz9hC-33" value="&lt;font style=&quot;font-size: 15px;&quot;&gt;Request&lt;/font&gt;&lt;div style=&quot;font-size: 15px;&quot;&gt;&lt;font style=&quot;font-size: 15px;&quot;&gt;Manager&lt;/font&gt;&lt;/div&gt;" style="rounded=0;whiteSpace=wrap;html=1;sketch=1;jiggle=2;curveFitting=1;sketchStyle=comic;strokeColor=default;strokeWidth=2;align=center;verticalAlign=middle;fontFamily=Permanent Marker;fontSize=12;fontColor=default;fontStyle=0;fillColor=default;" vertex="1" parent="1">
          <mxGeometry x="420" y="280" width="150" height="60" as="geometry" />
        </mxCell>
        <mxCell id="8BjTEOA2ny8shlbgz9hC-34" value="" style="group" vertex="1" connectable="0" parent="1">
          <mxGeometry x="600" y="290" width="90" height="60" as="geometry" />
        </mxCell>
        <mxCell id="8BjTEOA2ny8shlbgz9hC-35" value="&lt;span style=&quot;font-weight: normal;&quot;&gt;Request Q&lt;/span&gt;" style="text;html=1;align=center;verticalAlign=middle;whiteSpace=wrap;rounded=0;fontFamily=Permanent Marker;fontSize=12;fontColor=default;fontStyle=1;" vertex="1" parent="8BjTEOA2ny8shlbgz9hC-34">
          <mxGeometry x="-15" y="30" width="90" height="30" as="geometry" />
        </mxCell>
        <mxCell id="8BjTEOA2ny8shlbgz9hC-36" value="" style="group" vertex="1" connectable="0" parent="8BjTEOA2ny8shlbgz9hC-34">
          <mxGeometry width="60" height="30" as="geometry" />
        </mxCell>
        <mxCell id="8BjTEOA2ny8shlbgz9hC-37" value="" style="rounded=0;whiteSpace=wrap;html=1;sketch=1;jiggle=2;curveFitting=1;sketchStyle=comic;strokeColor=default;strokeWidth=2;align=center;verticalAlign=middle;fontFamily=Permanent Marker;fontSize=12;fontColor=default;fontStyle=1;fillColor=default;" vertex="1" parent="8BjTEOA2ny8shlbgz9hC-36">
          <mxGeometry width="10" height="30" as="geometry" />
        </mxCell>
        <mxCell id="8BjTEOA2ny8shlbgz9hC-38" value="" style="rounded=0;whiteSpace=wrap;html=1;sketch=1;jiggle=2;curveFitting=1;sketchStyle=comic;strokeColor=default;strokeWidth=2;align=center;verticalAlign=middle;fontFamily=Permanent Marker;fontSize=12;fontColor=default;fontStyle=1;fillColor=default;" vertex="1" parent="8BjTEOA2ny8shlbgz9hC-36">
          <mxGeometry x="10" width="10" height="30" as="geometry" />
        </mxCell>
        <mxCell id="8BjTEOA2ny8shlbgz9hC-39" value="" style="rounded=0;whiteSpace=wrap;html=1;sketch=1;jiggle=2;curveFitting=1;sketchStyle=comic;strokeColor=default;strokeWidth=2;align=center;verticalAlign=middle;fontFamily=Permanent Marker;fontSize=12;fontColor=default;fontStyle=1;fillColor=default;" vertex="1" parent="8BjTEOA2ny8shlbgz9hC-36">
          <mxGeometry x="20" width="10" height="30" as="geometry" />
        </mxCell>
        <mxCell id="8BjTEOA2ny8shlbgz9hC-40" value="" style="rounded=0;whiteSpace=wrap;html=1;sketch=1;jiggle=2;curveFitting=1;sketchStyle=comic;strokeColor=default;strokeWidth=2;align=center;verticalAlign=middle;fontFamily=Permanent Marker;fontSize=12;fontColor=default;fontStyle=1;fillColor=default;" vertex="1" parent="8BjTEOA2ny8shlbgz9hC-36">
          <mxGeometry x="30" width="10" height="30" as="geometry" />
        </mxCell>
        <mxCell id="8BjTEOA2ny8shlbgz9hC-41" value="" style="rounded=0;whiteSpace=wrap;html=1;sketch=1;jiggle=2;curveFitting=1;sketchStyle=comic;strokeColor=default;strokeWidth=2;align=center;verticalAlign=middle;fontFamily=Permanent Marker;fontSize=12;fontColor=default;fontStyle=1;fillColor=default;" vertex="1" parent="8BjTEOA2ny8shlbgz9hC-36">
          <mxGeometry x="40" width="10" height="30" as="geometry" />
        </mxCell>
        <mxCell id="8BjTEOA2ny8shlbgz9hC-42" value="" style="rounded=0;whiteSpace=wrap;html=1;sketch=1;jiggle=2;curveFitting=1;sketchStyle=comic;strokeColor=default;strokeWidth=2;align=center;verticalAlign=middle;fontFamily=Permanent Marker;fontSize=12;fontColor=default;fontStyle=1;fillColor=default;" vertex="1" parent="8BjTEOA2ny8shlbgz9hC-36">
          <mxGeometry x="50" width="10" height="30" as="geometry" />
        </mxCell>
        <mxCell id="8BjTEOA2ny8shlbgz9hC-43" value="&lt;font style=&quot;font-size: 15px;&quot;&gt;Request&lt;/font&gt;&lt;div style=&quot;font-size: 15px;&quot;&gt;&lt;font style=&quot;font-size: 15px;&quot;&gt;Manager&lt;/font&gt;&lt;/div&gt;" style="rounded=0;whiteSpace=wrap;html=1;sketch=1;jiggle=2;curveFitting=1;sketchStyle=comic;strokeColor=default;strokeWidth=2;align=center;verticalAlign=middle;fontFamily=Permanent Marker;fontSize=12;fontColor=default;fontStyle=0;fillColor=default;" vertex="1" parent="1">
          <mxGeometry x="680" y="280" width="150" height="60" as="geometry" />
        </mxCell>
      </root>
    </mxGraphModel>
  </diagram>
</mxfile>
